# xmcd CD database file
#
# Track frame offsets:
#	150
#	30411
#	34490
#	55613
#	84885
#	108224
#	142354
#	151751
#	176704
#	212432
#	248553
#	275804
#	314962
#
# Disc length: 4297 seconds
#
# Revision: 0
# Processed by: cddbd v1.5.2PL0 Copyright (c) Steve Scherf et al.
# Submitted via: CDex 1.70beta2
#
DISCID=b310c70d
DTITLE=Mike Downes - The Winds of Change
DYEAR=2004
DGENRE=Jazz
TTITLE0=Gemini
TTITLE1=Jesenje Lisce intro
TTITLE2=Jesenje Lisce
TTITLE3=AS Is
TTITLE4=Thorns to Stars
TTITLE5=Red Wren Sang at U
TTITLE6=Ode to Lucky Luke
TTITLE7=The Trail
TTITLE8=Sunrise
TTITLE9=Golden Earrings
TTITLE10=Prayer
TTITLE11=Any Chance to Prance
TTITLE12=Thorns to Stars (reprise)
EXTD=YEAR: 2004
EXTT0=
EXTT1=
EXTT2=
EXTT3=
EXTT4=
EXTT5=
EXTT6=
EXTT7=
EXTT8=
EXTT9=
EXTT10=
EXTT11=
EXTT12=
PLAYORDER=
